<svg xmlns="http://www.w3.org/2000/svg" width="512" height="512" viewBox="0 0 512 512">
  <rect width="512" height="512" fill="#2f3136"/>
  <g fill="none" stroke="#4d515b" stroke-width="6">
    <path d="M64 48l40-24 40 24v48l-40 24-40-24z"/>
    <path d="M184 48l40-24 40 24v48l-40 24-40-24z"/>
    <path d="M304 48l40-24 40 24v48l-40 24-40-24z"/>
    <path d="M424 48l40-24 40 24v48l-40 24-40-24z"/>
    <path d="M4 144l40-24 40 24v48l-40 24-40-24z"/>
    <path d="M124 144l40-24 40 24v48l-40 24-40-24z"/>
    <path d="M244 144l40-24 40 24v48l-40 24-40-24z"/>
    <path d="M364 144l40-24 40 24v48l-40 24-40-24z"/>
    <path d="M64 240l40-24 40 24v48l-40 24-40-24z"/>
    <path d="M184 240l40-24 40 24v48l-40 24-40-24z"/>
    <path d="M304 240l40-24 40 24v48l-40 24-40-24z"/>
    <path d="M424 240l40-24 40 24v48l-40 24-40-24z"/>
    <path d="M4 336l40-24 40 24v48l-40 24-40-24z"/>
    <path d="M124 336l40-24 40 24v48l-40 24-40-24z"/>
    <path d="M244 336l40-24 40 24v48l-40 24-40-24z"/>
    <path d="M364 336l40-24 40 24v48l-40 24-40-24z"/>
    <path d="M64 432l40-24 40 24v48l-40 24-40-24z"/>
    <path d="M184 432l40-24 40 24v48l-40 24-40-24z"/>
    <path d="M304 432l40-24 40 24v48l-40 24-40-24z"/>
    <path d="M424 432l40-24 40 24v48l-40 24-40-24z"/>
  </g>
</svg>
